<?xml version="1.0" encoding="UTF-8" standalone="no"?>
<!DOCTYPE svg PUBLIC "-//W3C//DTD SVG 1.1//EN"
 "http://www.w3.org/Graphics/SVG/1.1/DTD/svg11.dtd">
<!-- Generated by graphviz version 2.49.3 (20211023.0002)
 -->
<!-- Title: house Pages: 1 -->
<svg width="92pt" height="260pt"
 viewBox="0.00 0.00 92.49 260.00" xmlns="http://www.w3.org/2000/svg" xmlns:xlink="http://www.w3.org/1999/xlink">
<g id="graph0" class="graph" transform="scale(1 1) rotate(0) translate(4 256)">
<title>house</title>
<polygon fill="white" stroke="transparent" points="-4,4 -4,-256 88.49,-256 88.49,4 -4,4"/>
<!-- house -->
<g id="node1" class="node">
<title>house</title>
<ellipse fill="none" stroke="black" cx="42.25" cy="-234" rx="31.7" ry="18"/>
<text text-anchor="middle" x="42.25" y="-230.3" font-family="Times,serif" font-size="14.00">house</text>
</g>
<!-- gardener -->
<g id="node2" class="node">
<title>gardener</title>
<ellipse fill="none" stroke="black" cx="42.25" cy="-162" rx="42.49" ry="18"/>
<text text-anchor="middle" x="42.25" y="-158.3" font-family="Times,serif" font-size="14.00">gardener</text>
</g>
<!-- house&#45;&#45;gardener -->
<g id="edge1" class="edge">
<title>house&#45;&#45;gardener</title>
<path fill="none" stroke="black" d="M42.25,-215.7C42.25,-204.85 42.25,-190.92 42.25,-180.1"/>
</g>
<!-- manager -->
<g id="node3" class="node">
<title>manager</title>
<ellipse fill="none" stroke="black" cx="42.25" cy="-90" rx="42.49" ry="18"/>
<text text-anchor="middle" x="42.25" y="-86.3" font-family="Times,serif" font-size="14.00">manager</text>
</g>
<!-- gardener&#45;&#45;manager -->
<g id="edge2" class="edge">
<title>gardener&#45;&#45;manager</title>
<path fill="none" stroke="black" d="M42.25,-143.7C42.25,-132.85 42.25,-118.92 42.25,-108.1"/>
</g>
<!-- owner -->
<g id="node4" class="node">
<title>owner</title>
<ellipse fill="none" stroke="black" cx="42.25" cy="-18" rx="33.29" ry="18"/>
<text text-anchor="middle" x="42.25" y="-14.3" font-family="Times,serif" font-size="14.00">owner</text>
</g>
<!-- manager&#45;&#45;owner -->
<g id="edge3" class="edge">
<title>manager&#45;&#45;owner</title>
<path fill="none" stroke="black" d="M42.25,-71.7C42.25,-60.85 42.25,-46.92 42.25,-36.1"/>
</g>
</g>
</svg>
